HIERARCHY
ROOT Hips
{
	OFFSET -0.001795 -0.223333 0.028219
	CHANNELS 6 Xposition Yposition Zposition Zrotation Yrotation Xrotation 
	JOINT LeftUpLeg
	{
		OFFSET 0.069520 -0.091406 -0.006815
		CHANNELS 3 Zrotation Yrotation Xrotation
		JOINT LeftLeg
		{
			OFFSET 0.034277 -0.375199 -0.004496
			CHANNELS 3 Zrotation Yrotation Xrotation
			JOINT LeftFoot
			{
				OFFSET -0.013596 -0.397961 -0.043693
				CHANNELS 3 Zrotation Yrotation Xrotation
				JOINT LeftToe
				{
					OFFSET 0.026358 -0.055791 0.119288
					CHANNELS 3 Zrotation Yrotation Xrotation
					End Site
					{
						OFFSET 0.000000 0.000000 0.000000
					}
				}
			}
		}
	}
	JOINT RightUpLeg
	{
		OFFSET -0.067670 -0.090522 -0.004320
		CHANNELS 3 Zrotation Yrotation Xrotation
		JOINT RightLeg
		{
			OFFSET -0.038290 -0.382569 -0.008850
			CHANNELS 3 Zrotation Yrotation Xrotation
			JOINT RightFoot
			{
				OFFSET 0.015774 -0.398415 -0.042312
				CHANNELS 3 Zrotation Yrotation Xrotation
				JOINT RightToe
				{
					OFFSET -0.025372 -0.048144 0.123348
					CHANNELS 3 Zrotation Yrotation Xrotation
					End Site
					{
						OFFSET 0.000000 0.000000 0.000000
					}
				}
			}
		}
	}
	JOINT Spine
	{
		OFFSET -0.002533 0.108963 -0.026696
		CHANNELS 3 Zrotation Yrotation Xrotation
		JOINT Spine1
		{
			OFFSET 0.005487 0.135180 0.001092
			CHANNELS 3 Zrotation Yrotation Xrotation
			JOINT Spine2
			{
				OFFSET 0.001457 0.052922 0.025425
				CHANNELS 3 Zrotation Yrotation Xrotation
				JOINT Neck
				{
					OFFSET -0.002778 0.213870 -0.042857
					CHANNELS 3 Zrotation Yrotation Xrotation
					JOINT Head
					{
						OFFSET 0.005152 0.064970 0.051349
						CHANNELS 3 Zrotation Yrotation Xrotation
						End Site
						{
							OFFSET 0.000000 0.000000 0.000000
						}
					}
				}
				JOINT LeftShoulder
				{
					OFFSET 0.078845 0.121749 -0.034090
					CHANNELS 3 Zrotation Yrotation Xrotation
					JOINT LeftArm
					{
						OFFSET 0.090977 0.030469 -0.008868
						CHANNELS 3 Zrotation Yrotation Xrotation
						JOINT LeftForeArm
						{
							OFFSET 0.259612 -0.012772 -0.027456
							CHANNELS 3 Zrotation Yrotation Xrotation
							JOINT LeftHand
							{
								OFFSET 0.249234 0.008986 -0.001171
								CHANNELS 3 Zrotation Yrotation Xrotation
								End Site
								{
									OFFSET 0.000000 0.000000 0.000000
								}
							}
						}
					}
				}
				JOINT RightShoulder
				{
					OFFSET -0.081759 0.118833 -0.038615
					CHANNELS 3 Zrotation Yrotation Xrotation
					JOINT RightArm
					{
						OFFSET -0.096012 0.032551 -0.009143
						CHANNELS 3 Zrotation Yrotation Xrotation
						JOINT RightForeArm
						{
							OFFSET -0.253742 -0.013329 -0.021401
							CHANNELS 3 Zrotation Yrotation Xrotation
							JOINT RightHand
							{
								OFFSET -0.255298 0.007772 -0.005559
								CHANNELS 3 Zrotation Yrotation Xrotation
								End Site
								{
									OFFSET 0.000000 0.000000 0.000000
								}
							}
						}
					}
				}
			}
		}
	}
}
MOTION
Frames: 7
Frame Time: 0.050000
0.000000 0.937698 0.000000 -0.042691 -3.220116 5.759298 5.446299 -0.255968 -3.366959 0.575787 0.006072 -1.854573 -2.068460 -0.379229 9.033067 0.000000 0.000000 0.000000 -2.644480 0.471804 -4.684946 -2.242607 0.077682 -2.391589 -3.013110 -10.605003 10.070748 0.000000 0.000000 0.000000 5.722358 0.149495 -3.259061 -3.198632 1.476836 -2.219246 -4.842801 5.063499 3.855673 6.222239 -2.736932 -12.433803 0.000000 0.000000 0.000000 -20.364392 -4.971389 -0.472594 -51.193308 -11.518492 -0.869090 -8.536119 -19.310301 2.012734 0.000000 0.000000 0.000000 17.675680 -3.819230 -2.732877 61.281338 7.358204 -1.989847 10.438070 24.066943 3.079460 0.000000 0.000000 0.000000 
0.000372 0.937073 0.001059 -0.319060 -3.343763 6.580583 5.591009 -0.244850 -2.897602 0.797761 0.077374 -4.075708 -2.051974 -0.244946 9.353572 0.000000 0.000000 0.000000 -2.328458 0.521169 -5.248325 -2.355723 0.055418 -2.889440 -2.952479 -10.530132 10.174386 0.000000 0.000000 0.000000 6.897647 0.235527 -4.209206 -3.658271 1.683216 -2.045793 -5.959212 5.541090 3.424166 5.998861 -2.369543 -13.401440 0.000000 0.000000 0.000000 -21.365176 -4.891857 -0.834106 -50.009983 -12.073420 -0.503728 -8.562155 -18.110985 1.870909 0.000000 0.000000 0.000000 17.666574 -4.939975 -3.207471 62.682432 6.524500 -2.363657 10.252658 23.813757 3.038267 0.000000 0.000000 0.000000 
0.000601 0.937102 0.001812 0.016493 -3.196785 6.545974 5.093448 -0.268240 -3.325467 1.018925 0.024709 -3.262509 -2.084330 -0.343937 9.205918 0.000000 0.000000 0.000000 -2.300504 0.542582 -5.526341 -3.086001 0.154610 -2.205495 -3.103053 -10.755401 9.951289 0.000000 0.000000 0.000000 6.830187 0.234376 -4.198299 -3.569313 1.620958 -3.161817 -6.306820 5.379287 3.979723 5.503746 -2.284641 -12.030854 0.000000 0.000000 0.000000 -21.304323 -5.100431 -0.667089 -49.781892 -11.616722 -0.754316 -8.433046 -16.687681 1.713621 0.000000 0.000000 0.000000 18.794289 -4.474707 -3.050128 61.353189 5.816353 -2.844327 9.853834 24.435677 3.054233 0.000000 0.000000 0.000000 
0.000808 0.936955 0.002584 0.053552 -3.273666 7.170075 5.428957 -0.292287 -3.778775 0.316597 0.095096 -3.564684 -2.068006 -0.269628 9.356983 0.000000 0.000000 0.000000 -2.396953 0.580916 -5.953743 -3.047145 0.123950 -2.607980 -3.069425 -10.729511 10.071835 0.000000 0.000000 0.000000 6.980639 0.281918 -4.763727 -3.922856 1.783049 -2.760946 -6.187970 4.916593 2.786821 4.956816 -2.160304 -10.620680 0.000000 0.000000 0.000000 -21.474458 -4.205389 -1.093538 -49.656085 -12.191057 -0.421801 -7.947844 -14.930499 1.474776 0.000000 0.000000 0.000000 17.742621 -5.191116 -3.482873 61.667014 5.382955 -2.890984 10.684520 24.338169 3.164721 0.000000 0.000000 0.000000 
0.000908 0.937774 0.003332 0.166455 -3.141221 7.138372 5.040547 -0.296032 -3.737438 0.785351 0.057071 -3.560768 -2.178617 -0.351886 9.607894 0.000000 0.000000 0.000000 -2.456950 0.562476 -5.735278 -3.152632 0.118129 -2.826955 -3.078606 -10.804058 10.372932 0.000000 0.000000 0.000000 6.793658 0.318415 -5.134469 -3.725686 1.699818 -2.620140 -6.244159 4.701798 2.765897 4.901469 -2.202969 -10.161097 0.000000 0.000000 0.000000 -21.423595 -4.108964 -1.102468 -49.312791 -11.789143 -0.594470 -7.984398 -14.187559 1.408956 0.000000 0.000000 0.000000 17.647089 -5.593517 -3.717107 61.282409 4.873777 -3.140353 10.601233 24.660323 3.190044 0.000000 0.000000 0.000000 
0.000954 0.938420 0.004000 0.268825 -3.019858 7.550649 5.087644 -0.301206 -3.716378 0.516583 0.112214 -4.390251 -2.353961 -0.440229 10.141967 0.000000 0.000000 0.000000 -2.464042 0.581095 -5.942046 -3.342932 0.109071 -3.167590 -3.095023 -10.906459 10.725641 0.000000 0.000000 0.000000 6.531641 0.359183 -5.672172 -3.508538 1.601948 -2.642064 -6.233128 4.576253 2.399280 4.922486 -2.308538 -9.551798 0.000000 0.000000 0.000000 -21.246159 -3.275671 -1.539790 -49.253690 -11.250057 -0.784655 -7.586368 -13.507789 1.293806 0.000000 0.000000 0.000000 17.122504 -5.682800 -3.728214 61.338460 4.492165 -3.274840 10.291691 24.214341 3.049709 0.000000 0.000000 0.000000 
0.000936 0.938797 0.004398 0.376111 -2.957523 7.694159 4.932465 -0.309879 -3.810506 0.593039 0.111093 -4.496817 -2.422052 -0.475485 10.338332 0.000000 0.000000 0.000000 -2.458554 0.572855 -5.831051 -3.558208 0.094535 -3.597259 -3.085173 -10.937056 10.971693 0.000000 0.000000 0.000000 6.366138 0.376356 -5.912721 -3.544223 1.619741 -2.526525 -6.198868 4.387971 2.208758 5.314997 -2.556347 -9.710299 0.000000 0.000000 0.000000 -21.020534 -2.713632 -1.779346 -49.238681 -10.505270 -1.086801 -7.048220 -13.321666 1.216712 0.000000 0.000000 0.000000 17.037410 -6.107887 -3.981316 60.959895 3.966544 -3.504825 10.133811 23.871602 2.955806 0.000000 0.000000 0.000000 
